<svg width="150" height="150" viewBox="0 0 150 150" fill="none" xmlns="http://www.w3.org/2000/svg">
<path d="M54.5616 138.827C54.5617 138.827 54.5615 138.826 54.5612 138.826C49.9749 138.789 45.4012 138.329 40.8992 137.452C39.5857 137.209 38.4351 136.427 37.7261 135.295C37.0178 134.164 36.8166 132.787 37.1715 131.5C38.2142 127.707 40.2601 120.341 42.3556 113.095C42.4248 112.855 42.464 112.608 42.4722 112.359L42.821 101.797C42.9567 97.4985 43.6782 93.2389 44.9636 89.1353C46.1919 84.8573 48.3162 80.8941 51.1907 77.5073C51.6269 76.9933 52.4074 76.981 52.8806 77.4612V77.4612C53.3203 77.9073 53.3324 78.6177 52.929 79.0968C50.2747 82.2488 48.3165 85.9316 47.1889 89.9043C45.9658 93.7841 45.2802 97.8127 45.1499 101.878L44.7561 112.83C44.7472 113.076 44.7081 113.32 44.6397 113.557C42.521 120.885 40.4737 128.3 39.4075 132.117C39.2273 132.773 39.3326 133.476 39.6984 134.05C40.0502 134.655 40.6438 135.079 41.3294 135.215C50.6481 136.963 58.8015 136.986 65.5567 135.215C66.6549 134.938 67.4147 133.936 67.3858 132.804C67.1768 130.955 67.534 129.087 68.4107 127.446C68.5738 127.12 68.7485 126.782 68.9232 126.362C69.6213 124.554 70.8366 122.99 72.4176 121.866L83.588 114.12C89.7147 110.369 92.6029 107.271 93.9782 105.326C93.9782 105.326 93.9784 105.326 93.9784 105.326V105.326C93.9784 105.326 93.9785 105.326 93.9786 105.326C94.9308 103.971 95.2178 102.258 94.7584 100.667C92.0673 91.1273 84.8578 79.9218 82.7144 76.7189C82.4297 76.311 82.0218 76.0052 81.5499 75.8453C76.5181 74.0279 68.6087 75.414 67.0832 75.7174C66.9358 75.7478 66.7915 75.7907 66.6518 75.8453C63.9843 76.9404 61.5731 79.771 60.0242 81.9605C59.1553 83.1602 59.3573 84.8264 60.4883 85.7826C61.6186 86.7397 63.2956 86.6625 64.3338 85.6071L67.1193 82.8327C67.2178 82.7346 67.3651 82.7041 67.4945 82.7549L67.9916 82.9503C67.9918 82.9504 67.9919 82.9507 67.9917 82.9508V82.9508C67.9915 82.951 67.9916 82.9513 67.9918 82.9514C70.2552 83.5465 72.5608 83.9707 74.8873 84.2211L74.8954 84.2223C75.3391 84.2854 75.7074 84.5973 75.8428 85.0245V85.0245C77.2012 88.7536 78.9444 92.3304 81.0435 95.696C81.3824 96.2394 81.234 96.957 80.6992 97.3094V97.3094C80.1601 97.6646 79.4338 97.5133 79.0928 96.965C77.3449 94.1538 75.8291 91.2053 74.5607 88.1485C74.1372 87.1277 73.2125 86.3984 72.1211 86.2241C71.2514 86.0853 70.385 85.9275 69.5222 85.7507C68.5155 85.5445 67.4659 85.8337 66.7327 86.5537L65.9532 87.3193C64.7504 88.7233 62.8901 89.38 61.0728 89.0407C59.2546 88.7014 57.7563 87.4183 57.1414 85.6743C56.526 83.9302 56.8879 81.9912 58.0907 80.5864C59.8262 78.1521 62.5516 74.972 65.7317 73.6561C66.0109 73.5485 66.2996 73.4666 66.5936 73.4112C68.9234 72.9572 76.8315 71.6523 82.3063 73.6326C82.3066 73.6327 82.3068 73.6327 82.3071 73.6327V73.6327C82.3074 73.6327 82.3076 73.6328 82.3078 73.6328C83.257 73.9527 84.0751 74.5743 84.6366 75.4033C86.8261 78.6763 94.2111 90.1384 96.995 100.016C97.619 102.281 97.1916 104.706 95.8305 106.62C93.6636 109.707 90.0062 112.875 84.8113 116.02L73.7571 123.743C72.545 124.624 71.6138 125.838 71.0786 127.237C70.8805 127.738 70.6824 128.134 70.496 128.507C69.7955 129.803 69.5225 131.287 69.716 132.747C69.7386 133.828 69.3962 134.884 68.7425 135.745C68.0889 136.606 67.163 137.22 66.1163 137.488C62.3335 138.401 58.4539 138.851 54.562 138.827C54.5617 138.827 54.5615 138.827 54.5616 138.827V138.827Z" fill="#484848"/>
<path d="M96.4042 102.635C96.4035 102.636 96.4024 102.635 96.4021 102.635L95.6111 100.447C95.6111 100.447 95.6111 100.447 95.611 100.447V100.447C95.6109 100.447 95.6109 100.447 95.611 100.447C96.9445 100.084 98.0909 99.2298 98.8208 98.0568C99.5508 96.8837 99.8106 95.4781 99.5477 94.1217C95.6102 77.2666 89.5419 68.3669 87.084 65.3157C86.6503 64.7806 86.0123 64.4515 85.3251 64.407C68.8662 63.4983 60.1533 69.5668 60.0735 69.6253C57.721 71.0987 55.5682 72.8677 53.6665 74.8903C53.2523 75.3372 53.2523 76.0275 53.6665 76.4745C55.4007 78.5068 58.1509 78.1772 59.6943 77.7744C60.3314 77.6081 61.063 77.9007 61.3268 78.5041V78.5041C61.576 79.0739 61.3224 79.7243 60.7271 79.9041C58.7983 80.4869 54.6479 81.217 51.897 77.9779C51.8968 77.9777 51.8967 77.9774 51.8967 77.9772V77.9772C51.8967 77.9769 51.8966 77.9767 51.8965 77.9765C51.3389 77.3401 51.0325 76.5228 51.0325 75.6765C51.0325 74.8302 51.339 74.0127 51.8967 73.3762C53.945 71.2296 56.2538 69.3474 58.7685 67.7733C59.118 67.5167 68.0873 61.1806 85.4899 62.1471C86.8603 62.1978 88.1388 62.8499 88.9843 63.9294C91.5122 67.0977 97.8131 76.3345 101.914 93.6775C101.914 93.6776 101.914 93.6776 101.914 93.6775V93.6775C101.914 93.6775 101.914 93.6775 101.914 93.6775C102.275 95.5884 101.91 97.5648 100.891 99.2215C99.8724 100.877 98.2728 102.095 96.4047 102.635C96.4045 102.635 96.4043 102.635 96.4042 102.635V102.635Z" fill="#484848"/>
<path d="M101.399 95.9724C101.399 95.9724 101.399 95.9723 101.399 95.9722L101.168 95.5695C100.655 94.6781 100.975 93.5255 101.744 92.8436C103.205 91.5484 105.007 89.182 103.636 86.0957C103.636 86.0955 103.636 86.0953 103.636 86.0953V86.0953C103.636 86.0953 103.635 86.0952 103.635 86.095C101.351 79.7404 99.708 73.1736 98.7322 66.4914L98.1153 62.4615C98.1152 62.4612 98.115 62.4611 98.1148 62.4611V62.4611C98.1146 62.4611 98.1144 62.4609 98.1144 62.4607C97.6899 59.6935 96.0316 57.2677 93.6068 55.8684L64.9526 39.1303C64.4542 38.83 63.8489 38.7661 63.2982 38.9556C62.76 39.1576 62.3357 39.582 62.1336 40.1202L61.831 40.8308C61.4387 41.7886 61.3521 42.8455 61.5837 43.8541C61.8154 44.8635 62.3528 45.7768 63.1235 46.4687C66.185 49.1972 69.5009 51.6277 73.0248 53.7252C73.7471 54.1565 74.3758 54.5637 74.9585 54.995C77.2204 56.6308 80.9271 59.4749 82.6703 61.6599C83.0705 62.1616 82.8741 62.8668 82.316 63.1838V63.1838C81.743 63.5093 80.9971 63.3081 80.5643 62.8111C79.3233 61.3862 76.8414 59.2831 73.5959 56.9161C73.0718 56.5434 72.5009 56.1706 71.8373 55.7518C71.8371 55.7517 71.8368 55.7516 71.8365 55.7516V55.7516C71.8363 55.7516 71.8361 55.7515 71.8358 55.7514C68.1459 53.5604 64.6709 51.0255 61.4581 48.1809C60.3263 47.1669 59.5362 45.8277 59.1985 44.3456C58.8608 42.8644 58.9911 41.3145 59.5714 39.9105L59.8623 39.1999C60.3381 38.0245 61.3053 37.1156 62.5089 36.7149C63.7124 36.3132 65.0315 36.4598 66.1171 37.115L94.7834 53.8531C97.8121 55.6073 99.8814 58.6408 100.41 62.1001L101.062 66.1654C102.025 72.6636 103.617 79.0534 105.814 85.2452C108.144 90.4632 103.951 94.5628 101.4 95.9725C101.4 95.9726 101.399 95.9726 101.399 95.9724V95.9724Z" fill="#484848"/>
<path d="M71.8602 64.8457C71.8602 64.8457 71.8602 64.8457 71.8602 64.8457L71.1087 64.4163C70.3968 64.0096 70.1514 63.102 70.4132 62.325C71.1362 60.1793 71.2299 57.5292 71.2105 56.0059C71.2021 55.3472 71.7384 54.7242 72.395 54.6717V54.6717C73.0005 54.6232 73.5262 55.0724 73.5391 55.6797C73.5815 57.6847 73.4591 61.9768 71.8602 64.8457C71.8602 64.8458 71.8602 64.8457 71.8602 64.8457V64.8457Z" fill="#484848"/>
<path d="M57.6084 70.5669C57.3345 71.1481 56.6433 71.3996 56.0599 71.1305V71.1305C55.4717 70.8591 55.2159 70.1613 55.4895 69.5741L57.6145 65.0123C60.063 58.5697 57.2013 49.9648 56.5678 48.2682C56.4933 48.0687 56.4261 47.865 56.3797 47.6572V47.6572C55.9258 42.9985 56.531 40.2031 58.2311 38.9565C58.2313 38.9564 58.2315 38.9562 58.2315 38.9559V38.9559C58.2315 38.9557 58.2316 38.9554 58.2318 38.9553C59.0615 38.3474 60.121 38.1674 61.0945 38.4525C61.2997 38.5126 61.3916 38.742 61.3091 38.9393L60.5616 40.7254C60.5615 40.7256 60.5613 40.7255 60.5613 40.7254V40.7254C60.5613 40.7253 60.5613 40.7253 60.5612 40.7252C60.2633 40.6208 59.9326 40.6691 59.676 40.854C59.3478 41.1034 58.3595 42.2544 58.7207 46.8621C58.742 47.1336 58.8048 47.3985 58.8966 47.6549C59.7155 49.9402 62.5236 58.7935 59.8039 65.9086L57.6084 70.5669Z" fill="#484848"/>
<path d="M103.635 78.9887C103.635 78.9887 103.635 78.9886 103.635 78.9886L102.326 78.6292C101.808 78.4872 101.505 77.9515 101.648 77.4344C105.931 61.9694 109.236 46.2515 111.545 30.3704C111.58 30.0997 111.426 29.8407 111.172 29.7409C109.747 29.1395 108.13 29.191 106.746 29.8813C103.519 31.5115 101.76 36.3226 101.061 39.0127C100.738 40.1968 100.504 41.4043 100.362 42.6241C99.7389 46.9961 98.301 51.2103 96.1264 55.0478C95.9 55.4474 95.3835 55.5666 94.9982 55.3166L93.7466 54.5044C93.7465 54.5044 93.7463 54.5044 93.7463 54.5046V54.5046C93.7463 54.5047 93.7465 54.5048 93.7466 54.5046C95.9719 50.7561 97.4437 46.6097 98.0792 42.2972C98.2126 40.9805 98.4302 39.6732 98.7321 38.3838C99.7921 34.6219 101.842 29.7409 105.593 27.8189C105.593 27.8188 105.593 27.8187 105.593 27.8187V27.8187C105.592 27.8187 105.592 27.8186 105.592 27.8185C107.553 26.8296 109.845 26.7322 111.882 27.5512C112.508 27.7813 113.037 28.2189 113.38 28.7906C113.724 29.3631 113.861 30.0355 113.769 30.6961C111.428 46.9934 108.044 63.1241 103.635 78.9887C103.635 78.9887 103.635 78.9888 103.635 78.9887V78.9887Z" fill="#484848"/>
<path d="M75.3332 102.782C74.7471 103.01 74.0817 102.718 73.8871 102.12C72.236 97.0439 73.3499 93.1899 74.4138 91.0266C74.9926 89.8495 76.4263 89.7326 77.4172 90.5921V90.5921L76.5319 89.823V89.823C77.0245 90.2444 77.0947 90.9848 76.7761 91.5493C75.8844 93.1293 74.5441 96.5564 76.0166 101.293C76.2031 101.893 75.9185 102.553 75.3332 102.782V102.782Z" fill="#484848"/>
<path d="M49.5537 114.365C49.5537 114.364 49.5537 114.364 49.5537 114.364L48.1344 114.116C47.6272 114.027 47.28 113.55 47.3793 113.045C48.4994 107.343 52.2597 102.484 57.5442 99.9789C59.229 99.1973 61.0246 98.6825 62.8677 98.4532C66.3479 97.968 69.6874 96.7731 72.6801 94.9467C73.2076 94.6248 73.8989 94.7373 74.2732 95.2291V95.2291C74.6775 95.7603 74.5563 96.5239 73.9896 96.8767C70.7167 98.9139 67.046 100.239 63.2171 100.76C61.6048 100.954 60.0331 101.398 58.5573 102.076C53.6893 104.408 50.3103 109.02 49.5537 114.364C49.5537 114.365 49.5537 114.365 49.5537 114.365V114.365Z" fill="#484848"/>
<path fill-rule="evenodd" clip-rule="evenodd" d="M65.7899 11.6799C66.5283 11.3043 67.4314 11.5984 67.807 12.3368L74.9037 26.2884C75.2793 27.0267 74.9852 27.9298 74.2468 28.3054C73.5084 28.681 72.6053 28.3869 72.2297 27.6485L65.133 13.6969C64.7574 12.9585 65.0515 12.0555 65.7899 11.6799Z" fill="#FF9900"/>
<path fill-rule="evenodd" clip-rule="evenodd" d="M96.68 11.6799C95.9417 11.3043 95.0386 11.5984 94.663 12.3368L87.5663 26.2884C87.1907 27.0267 87.4848 27.9298 88.2232 28.3054C88.9616 28.681 89.8647 28.3869 90.2403 27.6485L97.3369 13.6969C97.7125 12.9585 97.4184 12.0555 96.68 11.6799Z" fill="#FF9900"/>
<path fill-rule="evenodd" clip-rule="evenodd" d="M81 7.5C81.8284 7.5 82.5 8.17157 82.5 9L82.5 24C82.5 24.8284 81.8284 25.5 81 25.5C80.1716 25.5 79.5 24.8284 79.5 24L79.5 9C79.5 8.17157 80.1716 7.5 81 7.5Z" fill="#FF9900"/>
</svg>
