<svg width="150" height="150" viewBox="0 0 150 150" fill="none" xmlns="http://www.w3.org/2000/svg">
<path fill-rule="evenodd" clip-rule="evenodd" d="M103.132 120L103.132 30C103.132 27.3766 101.006 25.25 98.3823 25.25L42 25.25C39.3766 25.25 37.25 27.3766 37.25 30L37.25 118C37.25 120.623 39.3766 122.75 42 122.75L97.5 122.75C98.1904 122.75 98.75 123.31 98.75 124C98.75 124.69 98.1904 125.25 97.5 125.25L42 125.25C37.9959 125.25 34.75 122.004 34.75 118L34.75 30C34.75 25.9959 37.9959 22.75 42 22.75L98.3823 22.75C102.386 22.75 105.632 25.9959 105.632 30L105.632 120C105.632 120.69 105.073 121.25 104.382 121.25C103.692 121.25 103.132 120.69 103.132 120Z" fill="#484848"/>
<path fill-rule="evenodd" clip-rule="evenodd" d="M78.5 82.25C70.0777 82.25 63.25 89.0777 63.25 97.5C63.25 105.922 70.0777 112.75 78.5 112.75C86.9223 112.75 93.75 105.922 93.75 97.5C93.75 89.0777 86.9223 82.25 78.5 82.25ZM60.75 97.5C60.75 87.6969 68.6969 79.75 78.5 79.75C88.3031 79.75 96.25 87.6969 96.25 97.5C96.25 102.461 94.2151 106.946 90.9344 110.167L94.7127 113.945C96.5998 112.841 99.0643 113.097 100.683 114.716L116.634 130.667C118.558 132.591 118.558 135.71 116.634 137.634C114.71 139.558 111.591 139.558 109.667 137.634L93.7157 121.683C92.0972 120.065 91.8402 117.6 92.945 115.713L89.1161 111.884C89.0859 111.854 89.0575 111.822 89.031 111.79C86.085 113.965 82.4426 115.25 78.5 115.25C68.6969 115.25 60.75 107.303 60.75 97.5ZM95.4834 116.484C96.431 115.536 97.9674 115.536 98.915 116.484L114.866 132.435C115.814 133.382 115.814 134.919 114.866 135.866C113.918 136.814 112.382 136.814 111.435 135.866L95.4834 119.915C94.5358 118.968 94.5358 117.431 95.4834 116.484Z" fill="#484848"/>
<path fill-rule="evenodd" clip-rule="evenodd" d="M45.75 41C45.75 38.6528 47.6528 36.75 50 36.75H89C91.3472 36.75 93.25 38.6528 93.25 41C93.25 43.3472 91.3472 45.25 89 45.25H50C47.6528 45.25 45.75 43.3472 45.75 41ZM50 39.25C49.0335 39.25 48.25 40.0335 48.25 41C48.25 41.9665 49.0335 42.75 50 42.75H89C89.9665 42.75 90.75 41.9665 90.75 41C90.75 40.0335 89.9665 39.25 89 39.25H50Z" fill="#FF9900"/>
<path fill-rule="evenodd" clip-rule="evenodd" d="M45.75 54C45.75 51.6528 47.6528 49.75 50 49.75H65C67.3472 49.75 69.25 51.6528 69.25 54C69.25 56.3472 67.3472 58.25 65 58.25H50C47.6528 58.25 45.75 56.3472 45.75 54ZM50 52.25C49.0335 52.25 48.25 53.0335 48.25 54C48.25 54.9665 49.0335 55.75 50 55.75H65C65.9665 55.75 66.75 54.9665 66.75 54C66.75 53.0335 65.9665 52.25 65 52.25H50Z" fill="#484848"/>
<path fill-rule="evenodd" clip-rule="evenodd" d="M45.75 67C45.75 64.6528 47.6528 62.75 50 62.75H80C82.3472 62.75 84.25 64.6528 84.25 67C84.25 69.3472 82.3472 71.25 80 71.25H50C47.6528 71.25 45.75 69.3472 45.75 67ZM50 65.25C49.0335 65.25 48.25 66.0335 48.25 67C48.25 67.9665 49.0335 68.75 50 68.75H80C80.9665 68.75 81.75 67.9665 81.75 67C81.75 66.0335 80.9665 65.25 80 65.25H50Z" fill="#FF9900"/>
</svg>
