<svg width="150" height="150" viewBox="0 0 150 150" fill="none" xmlns="http://www.w3.org/2000/svg">
<path fill-rule="evenodd" clip-rule="evenodd" d="M23.75 46.3086C23.75 42.3045 26.9959 39.0586 31 39.0586H119C123.004 39.0586 126.25 42.3045 126.25 46.3086V102.691C126.25 106.695 123.004 109.941 119 109.941H31C26.9959 109.941 23.75 106.695 23.75 102.691V46.3086ZM31 41.5586C28.3766 41.5586 26.25 43.6852 26.25 46.3086V102.691C26.25 105.314 28.3766 107.441 31 107.441H119C121.623 107.441 123.75 105.314 123.75 102.691V46.3086C123.75 43.6852 121.623 41.5586 119 41.5586H31Z" fill="#484848"/>
<path fill-rule="evenodd" clip-rule="evenodd" d="M36.9854 58.8086C36.9854 54.8045 40.2313 51.5586 44.2354 51.5586H105.765C109.769 51.5586 113.015 54.8045 113.015 58.8086V90.1909C113.015 94.195 109.769 97.4409 105.765 97.4409H44.2354C40.2313 97.4409 36.9854 94.195 36.9854 90.1909V58.8086ZM44.2354 54.0586C41.612 54.0586 39.4854 56.1852 39.4854 58.8086V90.1909C39.4854 92.8143 41.612 94.9409 44.2354 94.9409H105.765C108.388 94.9409 110.515 92.8143 110.515 90.1909V58.8086C110.515 56.1852 108.388 54.0586 105.765 54.0586H44.2354Z" fill="#FF9900"/>
<path fill-rule="evenodd" clip-rule="evenodd" d="M61.25 56.4851C61.25 53.7643 63.4557 51.5586 66.1765 51.5586H83.8235C86.5443 51.5586 88.75 53.7643 88.75 56.4851C88.75 59.2059 86.5443 61.4115 83.8235 61.4115H66.1765C63.4557 61.4115 61.25 59.2059 61.25 56.4851ZM66.1765 54.0586C64.8364 54.0586 63.75 55.145 63.75 56.4851C63.75 57.8252 64.8364 58.9115 66.1765 58.9115H83.8235C85.1636 58.9115 86.25 57.8252 86.25 56.4851C86.25 55.145 85.1636 54.0586 83.8235 54.0586H66.1765Z" fill="#484848"/>
<path fill-rule="evenodd" clip-rule="evenodd" d="M58.8236 69.5C55.4531 69.5 52.7207 72.2324 52.7207 75.6029C52.7207 78.9597 55.4308 81.6835 58.7823 81.7057C58.796 81.7053 58.8097 81.7051 58.8235 81.7051H58.9237C62.2481 81.6516 64.9266 78.9401 64.9266 75.6029C64.9266 72.2324 62.1942 69.5 58.8236 69.5ZM64.8878 81.7051C66.4558 80.1468 67.4266 77.9882 67.4266 75.6029C67.4266 70.8517 63.5749 67 58.8236 67C54.0724 67 50.2207 70.8517 50.2207 75.6029C50.2207 80.3542 54.0724 84.2059 58.8236 84.2059C58.8633 84.2059 58.903 84.2056 58.9425 84.2051H91.0575C91.0971 84.2056 91.1367 84.2059 91.1764 84.2059C91.2161 84.2059 91.2558 84.2056 91.2953 84.2051H91.5441C91.618 84.2051 91.6905 84.1987 91.7609 84.1863C96.2396 83.8859 99.7794 80.1578 99.7794 75.6029C99.7794 70.8517 95.9277 67 91.1764 67C86.4252 67 82.5735 70.8517 82.5735 75.6029C82.5735 77.9882 83.5442 80.1468 85.1122 81.7051H64.8878ZM91.2765 81.7051H91.0764C87.7519 81.6516 85.0735 78.9401 85.0735 75.6029C85.0735 72.2324 87.8059 69.5 91.1764 69.5C94.547 69.5 97.2794 72.2324 97.2794 75.6029C97.2794 78.9401 94.6009 81.6516 91.2765 81.7051Z" fill="#484848"/>
</svg>
